<?xml version="1.0" standalone="no"?>
<!DOCTYPE svg PUBLIC "-//W3C//DTD SVG 1.1//EN" "http://www.w3.org/Graphics/SVG/1.1/DTD/svg11.dtd">
<svg width="100%" height="100%" viewBox="0 0 219 207" version="1.1" xmlns="http://www.w3.org/2000/svg" xmlns:xlink="http://www.w3.org/1999/xlink" xml:space="preserve" style="fill-rule:evenodd;clip-rule:evenodd;stroke-linejoin:round;stroke-miterlimit:1.41421;">
    <g transform="matrix(0.901422,0,0,0.901422,-294.455,-267.87)">
        <clipPath id="_clip1">
            <path d="M79.962,283.781L79.962,509.148L533.165,509.152L533.165,283.781L79.962,283.781Z"/>
        </clipPath>
        <g clip-path="url(#_clip1)">
            <g>
                <clipPath id="_clip2">
                    <path d="M79.962,283.781L79.962,509.148L533.165,509.152L533.165,283.781L79.962,283.781Z"/>
                </clipPath>
                <g clip-path="url(#_clip2)">
                    <g>
                        <clipPath id="_clip3">
                            <path d="M533.165,283.781L533.165,509.152L79.962,509.148L79.962,283.781L533.165,283.781Z"/>
                        </clipPath>
                        <g clip-path="url(#_clip3)">
                            <g>
                                <clipPath id="_clip4">
                                    <path d="M533.165,283.781L533.165,509.152L79.962,509.148L79.962,283.781L533.165,283.781Z"/>
                                </clipPath>
                                <g clip-path="url(#_clip4)">
                                    <path d="M435.7,311.158L452.358,305.039L452.358,308.387L435.7,314.543L435.7,311.158ZM468.267,313.795L468.267,317.533L464.347,315.041L454.632,308.643L454.632,305.15L468.267,313.795ZM473.165,320.855L469.966,318.629L469.972,318.559L469.972,309.207L468.267,308.168L468.267,311.537L454.632,303.055L454.632,297.922L453.495,297.164L452.358,298.111L452.358,302.953L435.7,309.074L435.7,304.559L433.989,305.15L433.989,315.172L429.302,316.906L430.591,317.631C430.591,317.631 452.897,309.4 453.425,309.207C453.741,309.418 462.513,315.197 468.021,318.83L472.222,321.934L473.165,320.855Z" style="fill:rgb(99,99,99);fill-rule:nonzero;"/>
                                    <path d="M442.509,335.656L434.194,338.305C434.194,338.305 434.183,336.98 434.183,327.512C434.183,318.562 442.509,320.316 442.509,324.48L442.509,335.656ZM472.069,323.686L453.495,311.602L432.097,319.369C432.097,319.369 432.29,334.143 412.972,350.047L457.854,336.223L492.319,355.541C492.319,355.541 471.688,337.514 472.069,323.686" style="fill:rgb(99,99,99);fill-rule:nonzero;"/>
                                    <path d="M428.405,374.613L419.704,377.299L419.704,380.156L428.405,377.471L428.405,374.613Z" style="fill:rgb(99,99,99);fill-rule:nonzero;"/>
                                    <path d="M448.11,371.379L455.938,368.963L455.938,366.109L448.11,368.525L448.11,371.379Z" style="fill:rgb(99,99,99);fill-rule:nonzero;"/>
                                    <path d="M428.405,379.678L419.704,382.367L419.704,432.574L428.405,438.414L428.405,379.678Z" style="fill:rgb(99,99,99);fill-rule:nonzero;"/>
                                    <path d="M441.753,362.074C441.753,364.219 440.44,365.957 438.823,365.957C437.2,365.957 435.882,364.219 435.882,362.074C435.882,359.93 437.2,358.193 438.823,358.193C440.44,358.193 441.753,359.93 441.753,362.074" style="fill:rgb(99,99,99);fill-rule:nonzero;"/>
                                    <path d="M469.755,365.016C469.755,366.521 468.964,367.742 467.979,367.742C467.007,367.742 466.21,366.521 466.21,365.016C466.21,363.512 467.007,362.291 467.979,362.291C468.964,362.291 469.755,363.512 469.755,365.016" style="fill:rgb(99,99,99);fill-rule:nonzero;"/>
                                    <path d="M458.001,341.273L486.202,357.041C480.032,359.396 480.577,374.504 480.577,374.504L480.577,429.336L482.317,428.121L482.388,373.754C482.388,373.754 481.544,358.652 491.013,357.791L458.259,339.238L412.831,352.838C413.599,352.641 419.704,351.764 419.704,374.316L419.704,375.092L428.405,372.404L428.405,370.836C428.405,363.586 432.917,355.289 438.841,354.023C442.896,353.15 448.11,358.078 448.11,365.613L448.11,366.316L455.938,363.896L455.938,360.398C455.938,360.398 456.36,344.809 458.001,341.273" style="fill:rgb(99,99,99);fill-rule:nonzero;"/>
                                    <path d="M448.11,373.592L448.11,451.957L455.938,446.506L455.938,371.17L448.11,373.592Z" style="fill:rgb(99,99,99);fill-rule:nonzero;"/>
                                    <path d="M461.259,371.961L455.938,368.961L455.938,371.17L461.259,374.248" style="fill:rgb(99,99,99);fill-rule:nonzero;"/>
                                    <path d="M461.81,367.203L455.938,363.896L455.938,366.109L461.698,369.381" style="fill:rgb(99,99,99);fill-rule:nonzero;"/>
                                    <path d="M474.905,382.117L482.142,386.318L482.177,384.023L474.688,379.52C474.688,378.662 474.589,378.328 474.589,378.258C474.589,378.037 474.589,377.391 474.542,376.844L482.142,381.254L482.112,378.723L474.366,374.291" style="fill:rgb(99,99,99);fill-rule:nonzero;"/>
                                    <path d="M476.604,377.654L476.604,377.437C476.604,374.598 475.849,359.848 469.421,357.582C466.028,356.387 464.112,359.914 463.058,363.521C464.019,360.799 465.624,358.486 468.231,359.408C473.804,361.377 474.46,374.141 474.46,376.602L474.46,433.594L476.604,432.102L476.604,377.654Z" style="fill:rgb(99,99,99);fill-rule:nonzero;"/>
                                    <path d="M440.024,447.555L437.394,445.287L437.593,369.633L440.036,368.895L440.024,447.555Z" style="fill:rgb(99,99,99);fill-rule:nonzero;"/>
                                    <path d="M468.278,436.625L466.304,438.844L466.058,369.332L468.091,370.451L468.278,436.625Z" style="fill:rgb(99,99,99);fill-rule:nonzero;"/>
                                    <path d="M457.878,334.195C457.878,334.195 453.056,330.557 453.454,313.26L470.593,324.371C470.593,324.371 470.083,335.152 482.054,347.477L457.878,334.195Z" style="fill:rgb(225,225,225);fill-rule:nonzero;"/>
                                    <path d="M467.862,337.67C467.862,337.67 467.657,329.949 467.563,328.334C467.112,320.791 462.753,322.256 462.659,325.91L462.659,335.084L467.862,337.67Z" style="fill:rgb(99,99,99);fill-rule:nonzero;"/>
                                </g>
                            </g>
                        </g>
                    </g>
                </g>
            </g>
        </g>
    </g>
    <g transform="matrix(0.789798,0,0,0.789798,-11.1865,39.5835)">
        <text x="14.164px" y="200.458px" style="font-family:'Georgia';font-size:47.581px;fill:rgb(99,99,99);">M.C. CoreDB</text>
    </g>
</svg>
